<?xml version="1.0" encoding="UTF-8"?>
<svg width="478px" height="257px" viewBox="0 0 478 257" version="1.1" xmlns="http://www.w3.org/2000/svg" xmlns:xlink="http://www.w3.org/1999/xlink">
    <!-- Generator: Sketch 53.2 (72643) - https://sketchapp.com -->
    <title>KragglWithoutSucker</title>
    <desc>Created with Sketch.</desc>
    <g id="Page-1" stroke="none" stroke-width="1" fill="none" fill-rule="evenodd">
        <g id="KragglWithoutSucker" transform="translate(1.000000, 1.000000)" fill="#0C0D38" stroke="#CDECF4" stroke-width="2">
            <g id="Kraggl-Text">
                <g id="gg" transform="translate(174.439024, 49.722720)">
                    <path d="M139.121035,204.629144 C159.154949,200.110934 197.425231,175.522446 221.813359,134.958723 C227.01966,126.299307 232.378468,110.476619 237.889783,87.490659 C227.172167,103.488851 217.765784,111.487947 209.670634,111.487947 C197.527909,111.487947 179.880081,106.66128 179.880081,56.4639467 C179.880081,6.26661336 203.017942,1.4399467 212.41565,1.4399467 C218.680789,1.4399467 225.535464,5.73853206 232.979675,14.3357028 L232.979675,0 L249.402101,0 C249.402101,58.327106 249.402101,91.2002398 249.402101,98.6194015 C249.402101,139.481078 196.114696,182.413518 166.197912,197.252858 C157.450093,201.591956 148.351474,203.838772 139.091205,204.670044 C139.101143,204.656414 139.11109,204.64278 139.121035,204.629144 Z M0.544382611,142.467179 C33.1517914,116.940113 75.7784354,107.120687 105.721932,120.484264 C135.549659,133.796174 147.603484,122.482633 147.603484,97.0079467 L147.603484,87.490659 C142.460785,101.344568 133.951321,109.343664 122.075094,111.487947 C104.260754,114.704371 90.4885695,84.1561137 90.0934959,56.4639467 C89.6984223,28.7717797 104.005036,1.4399467 120.505081,1.4399467 C137.005127,1.4399467 147.603484,20.6705298 147.603484,14.3357028 C147.603484,10.1124848 147.603484,5.33391718 147.603484,0 L162.730235,0 L164.848948,113.437297 C164.531655,132.283692 158.783167,142.715123 147.603484,144.731591 C130.83396,147.756294 108.65852,141.580029 80.9287018,130.039056 C62.5103897,122.373472 35.7588189,126.512148 0.673989398,142.455083 C0.630594181,142.459165 0.587391497,142.463197 0.544382611,142.467179 Z M124.849593,84.4586134 C133.380821,84.4586134 140.296748,72.1410714 140.296748,56.9466134 C140.296748,41.7521553 133.380821,29.4346134 124.849593,29.4346134 C116.318366,29.4346134 109.402439,41.7521553 109.402439,56.9466134 C109.402439,72.1410714 116.318366,84.4586134 124.849593,84.4586134 Z M213.670732,84.4586134 C222.20196,84.4586134 229.117886,72.1410714 229.117886,56.9466134 C229.117886,41.7521553 222.20196,29.4346134 213.670732,29.4346134 C205.139504,29.4346134 198.223577,41.7521553 198.223577,56.9466134 C198.223577,72.1410714 205.139504,84.4586134 213.670732,84.4586134 Z" id="Combined-Shape"></path>
                </g>
                <path d="M246.724431,159.309024 C245.237694,158.348172 239.452075,158.81848 229.367575,160.719947 L229.367575,136.722659 C224.224875,150.576568 215.715412,158.575664 203.839185,160.719947 C186.024844,163.936371 172.25266,133.388114 171.857587,105.695947 C171.462513,78.0037797 185.769127,50.6719467 202.269172,50.6719467 C218.769217,50.6719467 229.367575,69.9025298 229.367575,63.5677028 C229.367575,59.3444848 229.367575,54.5659172 229.367575,49.232 L244.494326,49.232 C247.4678,123.577534 248.211168,160.269875 246.724431,159.309024 Z M206.613684,133.690613 C215.144912,133.690613 222.060839,121.373071 222.060839,106.178613 C222.060839,90.9841553 215.144912,78.6666134 206.613684,78.6666134 C198.082456,78.6666134 191.16653,90.9841553 191.16653,106.178613 C191.16653,121.373071 198.082456,133.690613 206.613684,133.690613 Z" id="a"></path>
                <path d="M125.907126,50.1973333 C142.407172,50.1973333 153.607367,70.8678632 153.607367,64.5330361 C153.607367,60.3098181 153.607367,55.5312505 153.607367,50.1973333 L168.734118,50.1973333 C171.707592,124.542867 172.450961,161.235209 170.964224,160.274357 C169.477487,159.313506 163.691868,159.783813 153.607367,161.68528 L153.607367,137.687992 L153.607367,103.548377 C150.240555,87.6091263 142.924925,77.1550335 131.660477,72.1860982 C120.396028,67.2171629 111.908932,65.8319279 106.199187,68.0303932 L106.199187,51.63728 C108.337783,50.6773156 114.907096,50.1973333 125.907126,50.1973333 Z" id="r" transform="translate(138.953390, 105.941307) scale(-1, 1) translate(-138.953390, -105.941307) "></path>
                <path d="M470.322784,149.464966 L475,-2.84217094e-14 L457.213103,-2.84217094e-14 C457.213103,5.33391718 457.213103,61.5783752 457.213103,65.8015932 C457.213103,69.3719578 456.17378,119.969726 456.17378,140.56721 C456.17378,150.695136 452.743141,150.695136 445.881863,140.56721 L437.347561,149.464966 C442.600912,158.457547 449.22276,162.953837 457.213103,162.953837 C465.203447,162.953837 469.57334,158.457547 470.322784,149.464966 Z" id="l" transform="translate(456.173780, 81.476919) scale(-1, 1) translate(-456.173780, -81.476919) "></path>
                <path d="M75.0403968,62.3622558 C75.0403968,58.1390378 75.0403968,7.02447018 75.0403968,1.690553 L92.3972531,1.690553 C95.3707272,76.036087 93.8839902,159.064428 92.3972531,158.103577 C90.9105161,157.142726 85.1248973,157.613033 75.0403968,159.5145 L75.0403968,135.517212 L75.0403968,101.377596 C40.3677199,141.076147 20.0736396,160.455115 14.158156,159.5145 C5.28493058,158.103577 2.14370899,150.881355 0.0882196718,149.886962 C-2.36522696,148.700047 47.0620511,104.498553 60.2278999,87.1084318 C60.2278999,74.6607817 41.9135768,47.8592232 5.28493058,6.70375636 C22.7655892,-0.00972146236 31.5059186,-1.68078925 31.5059186,1.690553 C31.5059186,6.74756638 75.0403968,68.6970828 75.0403968,62.3622558 Z" id="K" transform="translate(47.056995, 79.773578) scale(-1, 1) translate(-47.056995, -79.773578) "></path>
            </g>
        </g>
    </g>
</svg>