<?xml version="1.0" encoding="UTF-8"?>
<svg width="524px" height="412px" viewBox="0 0 524 412" version="1.1" xmlns="http://www.w3.org/2000/svg" xmlns:xlink="http://www.w3.org/1999/xlink">
    <!-- Generator: Sketch 53.2 (72643) - https://sketchapp.com -->
    <title>KragglLogoMitRectangle</title>
    <desc>Created with Sketch.</desc>
    <defs>
        <filter x="-13.4%" y="-15.1%" width="125.8%" height="130.4%" filterUnits="objectBoundingBox" id="filter-1">
            <feGaussianBlur stdDeviation="10" in="SourceGraphic"></feGaussianBlur>
        </filter>
        <filter x="-10.5%" y="-9.9%" width="120.9%" height="119.9%" filterUnits="objectBoundingBox" id="filter-2">
            <feGaussianBlur stdDeviation="10" in="SourceGraphic"></feGaussianBlur>
        </filter>
        <filter x="-41.0%" y="-27.7%" width="182.0%" height="155.5%" filterUnits="objectBoundingBox" id="filter-3">
            <feGaussianBlur stdDeviation="10" in="SourceGraphic"></feGaussianBlur>
        </filter>
        <filter x="-47.3%" y="-27.8%" width="194.6%" height="155.8%" filterUnits="objectBoundingBox" id="filter-4">
            <feGaussianBlur stdDeviation="10" in="SourceGraphic"></feGaussianBlur>
        </filter>
        <filter x="-83.0%" y="-19.0%" width="265.4%" height="138.0%" filterUnits="objectBoundingBox" id="filter-5">
            <feGaussianBlur stdDeviation="10" in="SourceGraphic"></feGaussianBlur>
        </filter>
        <filter x="-33.0%" y="-19.4%" width="166.0%" height="139.0%" filterUnits="objectBoundingBox" id="filter-6">
            <feGaussianBlur stdDeviation="10" in="SourceGraphic"></feGaussianBlur>
        </filter>
        <filter x="-157.8%" y="-159.3%" width="415.6%" height="418.7%" filterUnits="objectBoundingBox" id="filter-7">
            <feGaussianBlur stdDeviation="10" in="SourceGraphic"></feGaussianBlur>
        </filter>
        <filter x="-199.4%" y="-200.7%" width="499.0%" height="501.3%" filterUnits="objectBoundingBox" id="filter-8">
            <feGaussianBlur stdDeviation="10" in="SourceGraphic"></feGaussianBlur>
        </filter>
        <filter x="-219.0%" y="-229.4%" width="537.9%" height="558.6%" filterUnits="objectBoundingBox" id="filter-9">
            <feGaussianBlur stdDeviation="10" in="SourceGraphic"></feGaussianBlur>
        </filter>
        <filter x="-296.0%" y="-294.3%" width="691.7%" height="688.3%" filterUnits="objectBoundingBox" id="filter-10">
            <feGaussianBlur stdDeviation="10" in="SourceGraphic"></feGaussianBlur>
        </filter>
        <filter x="-280.5%" y="-240.1%" width="660.9%" height="580.1%" filterUnits="objectBoundingBox" id="filter-11">
            <feGaussianBlur stdDeviation="10" in="SourceGraphic"></feGaussianBlur>
        </filter>
        <filter x="-222.6%" y="-207.3%" width="545.2%" height="514.6%" filterUnits="objectBoundingBox" id="filter-12">
            <feGaussianBlur stdDeviation="10" in="SourceGraphic"></feGaussianBlur>
        </filter>
        <filter x="-236.4%" y="-255.2%" width="572.8%" height="610.4%" filterUnits="objectBoundingBox" id="filter-13">
            <feGaussianBlur stdDeviation="10" in="SourceGraphic"></feGaussianBlur>
        </filter>
        <filter x="-349.8%" y="-324.4%" width="799.6%" height="748.8%" filterUnits="objectBoundingBox" id="filter-14">
            <feGaussianBlur stdDeviation="10" in="SourceGraphic"></feGaussianBlur>
        </filter>
        <filter x="-905.0%" y="-262.4%" width="1910.3%" height="625.1%" filterUnits="objectBoundingBox" id="filter-15">
            <feGaussianBlur stdDeviation="10" in="SourceGraphic"></feGaussianBlur>
        </filter>
        <filter x="-466.8%" y="-328.0%" width="1033.5%" height="756.1%" filterUnits="objectBoundingBox" id="filter-16">
            <feGaussianBlur stdDeviation="10" in="SourceGraphic"></feGaussianBlur>
        </filter>
        <filter x="-389.7%" y="-296.5%" width="879.7%" height="692.8%" filterUnits="objectBoundingBox" id="filter-17">
            <feGaussianBlur stdDeviation="10" in="SourceGraphic"></feGaussianBlur>
        </filter>
        <filter x="-654.3%" y="-558.1%" width="1408.2%" height="1216.1%" filterUnits="objectBoundingBox" id="filter-18">
            <feGaussianBlur stdDeviation="10" in="SourceGraphic"></feGaussianBlur>
        </filter>
    </defs>
    <g id="Page-1" stroke="none" stroke-width="1" fill="none" fill-rule="evenodd">
        <g id="KragglLogoMitRectangle" transform="translate(-60.000000, -160.000000)">
            <rect id="Rectangle" x="0" y="0" width="830" height="830"></rect>
            <g id="KragglLogo" transform="translate(86.000000, 185.000000)" stroke="#CDECF4" stroke-width="2">
                <g id="Kraggl-Text-Blur" fill="#D8D8D8">
                    <path d="M313.560059,254.351864 C333.593973,249.833654 371.864255,225.245166 396.252383,184.681443 C401.458684,176.022027 406.817492,160.199339 412.328807,137.213379 C401.611191,153.211571 392.204808,161.210667 384.109658,161.210667 C371.966933,161.210667 354.319106,156.384 354.319106,106.186667 C354.319106,55.9893333 377.456966,51.1626667 386.854675,51.1626667 C393.119814,51.1626667 399.974489,55.461252 407.418699,64.0584228 L407.418699,49.72272 L423.841126,49.72272 C423.841126,108.049826 423.841126,140.92296 423.841126,148.342121 C423.841126,189.203798 370.55372,232.136238 340.636937,246.975578 C331.889117,251.314676 322.790498,253.561492 313.530229,254.392764 C313.540167,254.379134 313.550115,254.3655 313.560059,254.351864 Z M174.983407,192.189899 C207.590816,166.662833 250.21746,156.843407 280.160956,170.206984 C309.988683,183.518894 322.042509,172.205353 322.042509,146.730667 L322.042509,137.213379 C316.899809,151.067288 308.390346,159.066384 296.514119,161.210667 C278.699778,164.427091 264.927594,133.878834 264.53252,106.186667 C264.137447,78.4944996 278.44406,51.1626667 294.944106,51.1626667 C311.444151,51.1626667 322.042509,70.3932498 322.042509,64.0584228 C322.042509,59.8352047 322.042509,55.0566371 322.042509,49.72272 L337.169259,49.72272 L339.287972,163.160017 C338.970679,182.006412 333.222191,192.437843 322.042509,194.454311 C305.272985,197.479014 283.097544,191.302749 255.367726,179.761776 C236.949414,172.096192 210.197843,176.234868 175.113014,192.177803 C175.069619,192.181885 175.026416,192.185917 174.983407,192.189899 Z M299.288618,134.181333 C307.819846,134.181333 314.735772,121.863791 314.735772,106.669333 C314.735772,91.4748753 307.819846,79.1573333 299.288618,79.1573333 C290.75739,79.1573333 283.841463,91.4748753 283.841463,106.669333 C283.841463,121.863791 290.75739,134.181333 299.288618,134.181333 Z M388.109756,134.181333 C396.640984,134.181333 403.556911,121.863791 403.556911,106.669333 C403.556911,91.4748753 396.640984,79.1573333 388.109756,79.1573333 C379.578528,79.1573333 372.662602,91.4748753 372.662602,106.669333 C372.662602,121.863791 379.578528,134.181333 388.109756,134.181333 Z" id="Combined-Shape" filter="url(#filter-1)"></path>
                    <path d="M174.72274,192.355478 C209.999519,176.265694 236.881181,172.067794 255.367726,179.761776 C283.097544,191.302749 305.272985,197.479014 322.042509,194.454311 C333.222191,192.437843 338.970679,182.006412 339.287972,163.160017 L337.169259,49.72272 L322.042509,49.72272 C322.042509,55.0566371 322.042509,59.8352047 322.042509,64.0584228 C322.042509,70.3932498 311.444151,51.1626667 294.944106,51.1626667 C278.44406,51.1626667 264.137447,78.4944996 264.53252,106.186667 C264.927594,133.878834 278.699778,164.427091 296.514119,161.210667 C308.390346,159.066384 316.899809,151.067288 322.042509,137.213379 L322.042509,146.730667 C322.042509,172.205353 309.988683,183.518894 280.160956,170.206984 C227.61329,146.755321 136.005926,194.699274 128.033111,273.638492 C123.52717,318.25202 144.907247,355.423859 183.52533,361.051115 C204.150574,364.056535 227.603448,348.919738 232.767613,333.498933 C236.601538,322.050383 236.601538,296.422301 219.883921,288.507805 C203.666057,280.829903 186.458208,286.759836 179.593402,300.698537 C173.95181,312.153555 180.5585,330.579222 188.928514,333.498933 C197.270419,336.408839 206.808805,333.498933 210.847814,327.266445 C214.886822,321.033956 202.572161,324.430975 198.311401,320.765559 C178.210746,303.473515 225.201959,302.588997 219.883921,327.266445 C214.142893,353.906703 164.049995,336.953642 157.165755,309.529374 C150.281514,282.105107 170.150249,256.420859 183.52533,246.975578 C203.560388,232.827122 232.899385,242.367491 264.199187,249.324528 C289.700652,254.992764 316.503728,258.946145 340.636937,246.975578 C370.55372,232.136238 423.841126,189.203798 423.841126,148.342121 C423.841126,140.92296 423.841126,108.049826 423.841126,49.72272 L407.418699,49.72272 L407.418699,64.0584228 C399.974489,55.461252 393.119814,51.1626667 386.854675,51.1626667 C377.456966,51.1626667 354.319106,55.9893333 354.319106,106.186667 C354.319106,156.384 371.966933,161.210667 384.109658,161.210667 C392.204808,161.210667 401.611191,153.211571 412.328807,137.213379 C406.817492,160.199339 401.458684,176.022027 396.252383,184.681443 C371.708052,225.504971 333.103172,250.14797 313.177368,254.436209" id="Path" fill-opacity="0" filter="url(#filter-2)"></path>
                    <path d="M246.724431,159.309024 C245.237694,158.348172 239.452075,158.81848 229.367575,160.719947 L229.367575,136.722659 C224.224875,150.576568 215.715412,158.575664 203.839185,160.719947 C186.024844,163.936371 172.25266,133.388114 171.857587,105.695947 C171.462513,78.0037797 185.769127,50.6719467 202.269172,50.6719467 C218.769217,50.6719467 229.367575,69.9025298 229.367575,63.5677028 C229.367575,59.3444848 229.367575,54.5659172 229.367575,49.232 L244.494326,49.232 C247.4678,123.577534 248.211168,160.269875 246.724431,159.309024 Z M206.613684,133.690613 C215.144912,133.690613 222.060839,121.373071 222.060839,106.178613 C222.060839,90.9841553 215.144912,78.6666134 206.613684,78.6666134 C198.082456,78.6666134 191.16653,90.9841553 191.16653,106.178613 C191.16653,121.373071 198.082456,133.690613 206.613684,133.690613 Z" id="a" filter="url(#filter-3)"></path>
                    <path d="M125.907126,50.1973333 C142.407172,50.1973333 153.607367,70.8678632 153.607367,64.5330361 C153.607367,60.3098181 153.607367,55.5312505 153.607367,50.1973333 L168.734118,50.1973333 C171.707592,124.542867 172.450961,161.235209 170.964224,160.274357 C169.477487,159.313506 163.691868,159.783813 153.607367,161.68528 L153.607367,137.687992 L153.607367,103.548377 C150.240555,87.6091263 142.924925,77.1550335 131.660477,72.1860982 C120.396028,67.2171629 111.908932,65.8319279 106.199187,68.0303932 L106.199187,51.63728 C108.337783,50.6773156 114.907096,50.1973333 125.907126,50.1973333 Z" id="r" filter="url(#filter-4)" transform="translate(138.953390, 105.941307) scale(-1, 1) translate(-138.953390, -105.941307) "></path>
                    <path d="M470.322784,149.464966 L475,-2.84217094e-14 L457.213103,-2.84217094e-14 C457.213103,5.33391718 457.213103,61.5783752 457.213103,65.8015932 C457.213103,69.3719578 456.17378,119.969726 456.17378,140.56721 C456.17378,150.695136 452.743141,150.695136 445.881863,140.56721 L437.347561,149.464966 C442.600912,158.457547 449.22276,162.953837 457.213103,162.953837 C465.203447,162.953837 469.57334,158.457547 470.322784,149.464966 Z" id="l" filter="url(#filter-5)" transform="translate(456.173780, 81.476919) scale(-1, 1) translate(-456.173780, -81.476919) "></path>
                    <path d="M75.0403968,62.3622558 C75.0403968,58.1390378 75.0403968,7.02447018 75.0403968,1.690553 L92.3972531,1.690553 C95.3707272,76.036087 93.8839902,159.064428 92.3972531,158.103577 C90.9105161,157.142726 85.1248973,157.613033 75.0403968,159.5145 L75.0403968,135.517212 L75.0403968,101.377596 C40.3677199,141.076147 20.0736396,160.455115 14.158156,159.5145 C5.28493058,158.103577 2.14370899,150.881355 0.0882196718,149.886962 C-2.36522696,148.700047 47.0620511,104.498553 60.2278999,87.1084318 C60.2278999,74.6607817 41.9135768,47.8592232 5.28493058,6.70375636 C22.7655892,-0.00972146236 31.5059186,-1.68078925 31.5059186,1.690553 C31.5059186,6.74756638 75.0403968,68.6970828 75.0403968,62.3622558 Z" id="K" filter="url(#filter-6)" transform="translate(47.056995, 79.773578) scale(-1, 1) translate(-47.056995, -79.773578) "></path>
                </g>
                <g id="Kraggl-Text">
                    <g id="gg" transform="translate(127.439024, 49.722720)">
                        <path d="M186.121035,204.629144 C206.154949,200.110934 244.425231,175.522446 268.813359,134.958723 C274.01966,126.299307 279.378468,110.476619 284.889783,87.490659 C274.172167,103.488851 264.765784,111.487947 256.670634,111.487947 C244.527909,111.487947 226.880081,106.66128 226.880081,56.4639467 C226.880081,6.26661336 250.017942,1.4399467 259.41565,1.4399467 C265.680789,1.4399467 272.535464,5.73853206 279.979675,14.3357028 L279.979675,0 L296.402101,0 C296.402101,58.327106 296.402101,91.2002398 296.402101,98.6194015 C296.402101,139.481078 243.114696,182.413518 213.197912,197.252858 C204.450093,201.591956 195.351474,203.838772 186.091205,204.670044 C186.101143,204.656414 186.11109,204.64278 186.121035,204.629144 Z M47.5443826,142.467179 C80.1517914,116.940113 122.778435,107.120687 152.721932,120.484264 C182.549659,133.796174 194.603484,122.482633 194.603484,97.0079467 L194.603484,87.490659 C189.460785,101.344568 180.951321,109.343664 169.075094,111.487947 C151.260754,114.704371 137.48857,84.1561137 137.093496,56.4639467 C136.698422,28.7717797 151.005036,1.4399467 167.505081,1.4399467 C184.005127,1.4399467 194.603484,20.6705298 194.603484,14.3357028 C194.603484,10.1124848 194.603484,5.33391718 194.603484,0 L209.730235,0 L211.848948,113.437297 C211.531655,132.283692 205.783167,142.715123 194.603484,144.731591 C177.83396,147.756294 155.65852,141.580029 127.928702,130.039056 C109.51039,122.373472 82.7588189,126.512148 47.6739894,142.455083 C47.6305942,142.459165 47.5873915,142.463197 47.5443826,142.467179 Z M171.849593,84.4586134 C180.380821,84.4586134 187.296748,72.1410714 187.296748,56.9466134 C187.296748,41.7521553 180.380821,29.4346134 171.849593,29.4346134 C163.318366,29.4346134 156.402439,41.7521553 156.402439,56.9466134 C156.402439,72.1410714 163.318366,84.4586134 171.849593,84.4586134 Z M260.670732,84.4586134 C269.20196,84.4586134 276.117886,72.1410714 276.117886,56.9466134 C276.117886,41.7521553 269.20196,29.4346134 260.670732,29.4346134 C252.139504,29.4346134 245.223577,41.7521553 245.223577,56.9466134 C245.223577,72.1410714 252.139504,84.4586134 260.670732,84.4586134 Z" id="Combined-Shape" fill="#0C0D38"></path>
                        <path d="M47.2837157,142.632758 C82.5604944,126.542974 109.442156,122.345074 127.928702,130.039056 C155.65852,141.580029 177.83396,147.756294 194.603484,144.731591 C205.783167,142.715123 211.531655,132.283692 211.848948,113.437297 L209.730235,0 L194.603484,0 C194.603484,5.33391718 194.603484,10.1124848 194.603484,14.3357028 C194.603484,20.6705298 184.005127,1.4399467 167.505081,1.4399467 C151.005036,1.4399467 136.698422,28.7717797 137.093496,56.4639467 C137.48857,84.1561137 151.260754,114.704371 169.075094,111.487947 C180.951321,109.343664 189.460785,101.344568 194.603484,87.490659 L194.603484,97.0079467 C194.603484,122.482633 182.549659,133.796174 152.721932,120.484264 C100.174266,97.0326007 8.56690114,144.976554 0.594086245,223.915772 C-3.91185393,268.5293 17.4682224,305.701139 56.0863057,311.328395 C76.7115495,314.333815 100.164423,299.197018 105.328589,283.776213 C109.162514,272.327663 109.162514,246.699581 92.4448965,238.785085 C76.2270323,231.107183 59.0191833,237.037116 52.1543779,250.975817 C46.5127854,262.430835 53.1194757,280.856502 61.4894899,283.776213 C69.8313943,286.686119 79.3697806,283.776213 83.4087891,277.543725 C87.4477976,271.311236 75.1331364,274.708255 70.8723764,271.042839 C50.7717219,253.750795 97.7629349,252.866277 92.4448965,277.543725 C86.7038686,304.183983 36.6109711,287.230922 29.7267304,259.806654 C22.8424897,232.382387 42.7112244,206.698139 56.0863057,197.252858 C76.1213635,183.104402 105.460361,192.644771 136.760162,199.601808 C162.261628,205.270044 189.064704,209.223425 213.197912,197.252858 C243.114696,182.413518 296.402101,139.481078 296.402101,98.6194015 C296.402101,91.2002398 296.402101,58.327106 296.402101,0 L279.979675,0 L279.979675,14.3357028 C272.535464,5.73853206 265.680789,1.4399467 259.41565,1.4399467 C250.017942,1.4399467 226.880081,6.26661336 226.880081,56.4639467 C226.880081,106.66128 244.527909,111.487947 256.670634,111.487947 C264.765784,111.487947 274.172167,103.488851 284.889783,87.490659 C279.378468,110.476619 274.01966,126.299307 268.813359,134.958723 C244.269028,175.782251 205.664148,200.42525 185.738344,204.713489" id="Path" fill-opacity="0" fill="#D8D8D8"></path>
                    </g>
                    <path d="M246.724431,159.309024 C245.237694,158.348172 239.452075,158.81848 229.367575,160.719947 L229.367575,136.722659 C224.224875,150.576568 215.715412,158.575664 203.839185,160.719947 C186.024844,163.936371 172.25266,133.388114 171.857587,105.695947 C171.462513,78.0037797 185.769127,50.6719467 202.269172,50.6719467 C218.769217,50.6719467 229.367575,69.9025298 229.367575,63.5677028 C229.367575,59.3444848 229.367575,54.5659172 229.367575,49.232 L244.494326,49.232 C247.4678,123.577534 248.211168,160.269875 246.724431,159.309024 Z M206.613684,133.690613 C215.144912,133.690613 222.060839,121.373071 222.060839,106.178613 C222.060839,90.9841553 215.144912,78.6666134 206.613684,78.6666134 C198.082456,78.6666134 191.16653,90.9841553 191.16653,106.178613 C191.16653,121.373071 198.082456,133.690613 206.613684,133.690613 Z" id="a" fill="#0C0D38"></path>
                    <path d="M125.907126,50.1973333 C142.407172,50.1973333 153.607367,70.8678632 153.607367,64.5330361 C153.607367,60.3098181 153.607367,55.5312505 153.607367,50.1973333 L168.734118,50.1973333 C171.707592,124.542867 172.450961,161.235209 170.964224,160.274357 C169.477487,159.313506 163.691868,159.783813 153.607367,161.68528 L153.607367,137.687992 L153.607367,103.548377 C150.240555,87.6091263 142.924925,77.1550335 131.660477,72.1860982 C120.396028,67.2171629 111.908932,65.8319279 106.199187,68.0303932 L106.199187,51.63728 C108.337783,50.6773156 114.907096,50.1973333 125.907126,50.1973333 Z" id="r" fill="#0C0D38" transform="translate(138.953390, 105.941307) scale(-1, 1) translate(-138.953390, -105.941307) "></path>
                    <path d="M470.322784,149.464966 L475,-2.84217094e-14 L457.213103,-2.84217094e-14 C457.213103,5.33391718 457.213103,61.5783752 457.213103,65.8015932 C457.213103,69.3719578 456.17378,119.969726 456.17378,140.56721 C456.17378,150.695136 452.743141,150.695136 445.881863,140.56721 L437.347561,149.464966 C442.600912,158.457547 449.22276,162.953837 457.213103,162.953837 C465.203447,162.953837 469.57334,158.457547 470.322784,149.464966 Z" id="l" fill="#0C0D38" transform="translate(456.173780, 81.476919) scale(-1, 1) translate(-456.173780, -81.476919) "></path>
                    <path d="M75.0403968,62.3622558 C75.0403968,58.1390378 75.0403968,7.02447018 75.0403968,1.690553 L92.3972531,1.690553 C95.3707272,76.036087 93.8839902,159.064428 92.3972531,158.103577 C90.9105161,157.142726 85.1248973,157.613033 75.0403968,159.5145 L75.0403968,135.517212 L75.0403968,101.377596 C40.3677199,141.076147 20.0736396,160.455115 14.158156,159.5145 C5.28493058,158.103577 2.14370899,150.881355 0.0882196718,149.886962 C-2.36522696,148.700047 47.0620511,104.498553 60.2278999,87.1084318 C60.2278999,74.6607817 41.9135768,47.8592232 5.28493058,6.70375636 C22.7655892,-0.00972146236 31.5059186,-1.68078925 31.5059186,1.690553 C31.5059186,6.74756638 75.0403968,68.6970828 75.0403968,62.3622558 Z" id="K" fill="#0C0D38" transform="translate(47.056995, 79.773578) scale(-1, 1) translate(-47.056995, -79.773578) "></path>
                </g>
                <g id="Sucker-Blur" transform="translate(131.000000, 210.000000)" fill="#D8D8D8" fill-opacity="0.4">
                    <path d="M173.923313,36.6647127 C182.177681,29.2699956 175.999027,11.5444675 161.958406,22.2387437 C150.894994,24.235284 165.52373,44.1895211 173.923313,36.6647127 Z" id="Path-3" filter="url(#filter-7)"></path>
                    <path d="M140.524775,21.7693451 C131.199138,19.9141762 127.868431,30.3066371 136.303194,35.4944313 C146.9134,42.0202298 151.436367,25.4537602 141.385861,21.6921837 L140.524775,21.7693451 Z" id="Path-4" filter="url(#filter-8)"></path>
                    <path d="M158.285593,3.60426264 C155.822706,3.90923601 149.934075,13.6845174 159.062318,16.4677131 C169.093774,19.5262976 173.016775,7.71965952 160.158832,3.60426264 C160.551931,3.40094706 159.927518,3.40094706 158.285593,3.60426264 Z" id="Path-5" filter="url(#filter-9)"></path>
                    <path d="M141.828726,2.59143008 C128.30336,8.68229722 149.27188,19.2251486 147.653103,8.34141851 C147.056492,4.33014611 145.277121,4.06052453 142.451998,2.51271416 L141.828726,2.59143008 Z" id="Path-6" filter="url(#filter-10)"></path>
                    <path d="M120.960299,12.8235683 C128.889745,16.6329041 130.636511,7.27287209 122.062275,1.30123421 C116.183215,-1.69801372 114.173181,9.56301106 120.960299,12.8235683 Z" id="Path-7" filter="url(#filter-11)"></path>
                    <path d="M103.158711,27.4521536 C112.804346,31.9076018 116.703635,13.7439059 104.314148,13.5236276 C95.8041784,10.9641249 96.8493266,24.5377646 103.158711,27.4521536 Z" id="Path-8" filter="url(#filter-12)"></path>
                    <path d="M75.6235071,1.07533349 C70.1989493,7.18239201 81.8724217,16.1861022 85.5949381,10.157474 C91.1824382,1.10849829 81.9162411,-1.21517802 76.3723725,0.544969011 L75.6235071,1.07533349 Z" id="Path-9" filter="url(#filter-13)"></path>
                    <path d="M19.8746875,47.5595356 C21.4025707,52.194508 32.4657229,39.5467778 25.0333276,39.0237622 C19.6522144,39.1391268 17.0398497,38.959798 19.8746875,47.5595356 Z" id="Path-10" filter="url(#filter-14)"></path>
                    <path d="M2.51371799,66.1103418 C-1.77988202,76.0775038 7.82402588,85.0511654 3.79656738,66.1103418 C3.45909971,65.6278405 3.22518213,65.3865899 3.09481464,65.3865899 C2.94010448,65.3865899 2.7464056,65.6278405 2.51371799,66.1103418 Z" id="Path-11" filter="url(#filter-15)"></path>
                    <path d="M11.1530931,67.5509004 C6.56262778,68.3280003 5.70110929,77.8998422 10.2998878,76.9165562 C15.4307237,75.8195087 14.3549041,67.1344793 11.4817403,67.5509004 L11.1530931,67.5509004 Z" id="Path-12" filter="url(#filter-16)"></path>
                    <path d="M2.76236388,83.4250205 C1.53594296,83.0126594 1.10879642,83.6970273 0.741279804,84.5446312 C-4.07230144,95.6461979 16.6360787,98.1247848 3.53383431,84.1193491 L2.76236388,83.4250205 Z" id="Path-13" filter="url(#filter-17)"></path>
                    <path d="M58.4070837,84.4136713 C57.7338299,85.0496382 54.581608,87.4828158 55.1745331,88.8918213 C56.4442507,91.9091323 60.1572659,85.8347023 59.8176819,84.9319482 C59.4780979,84.0291942 58.8141028,84.0291942 58.4070837,84.4136713 Z" id="Path-14" filter="url(#filter-18)"></path>
                </g>
                <g id="Sucker" transform="translate(131.000000, 210.000000)">
                    <path d="M173.923313,36.6647127 C182.177681,29.2699956 175.999027,11.5444675 161.958406,22.2387437 C150.894994,24.235284 165.52373,44.1895211 173.923313,36.6647127 Z" id="Path-3"></path>
                    <path d="M140.524775,21.7693451 C131.199138,19.9141762 127.868431,30.3066371 136.303194,35.4944313 C146.9134,42.0202298 151.436367,25.4537602 141.385861,21.6921837 L140.524775,21.7693451 Z" id="Path-4"></path>
                    <path d="M158.285593,3.60426264 C155.822706,3.90923601 149.934075,13.6845174 159.062318,16.4677131 C169.093774,19.5262976 173.016775,7.71965952 160.158832,3.60426264 C160.551931,3.40094706 159.927518,3.40094706 158.285593,3.60426264 Z" id="Path-5"></path>
                    <path d="M141.828726,2.59143008 C128.30336,8.68229722 149.27188,19.2251486 147.653103,8.34141851 C147.056492,4.33014611 145.277121,4.06052453 142.451998,2.51271416 L141.828726,2.59143008 Z" id="Path-6"></path>
                    <path d="M120.960299,12.8235683 C128.889745,16.6329041 130.636511,7.27287209 122.062275,1.30123421 C116.183215,-1.69801372 114.173181,9.56301106 120.960299,12.8235683 Z" id="Path-7"></path>
                    <path d="M103.158711,27.4521536 C112.804346,31.9076018 116.703635,13.7439059 104.314148,13.5236276 C95.8041784,10.9641249 96.8493266,24.5377646 103.158711,27.4521536 Z" id="Path-8"></path>
                    <path d="M75.6235071,1.07533349 C70.1989493,7.18239201 81.8724217,16.1861022 85.5949381,10.157474 C91.1824382,1.10849829 81.9162411,-1.21517802 76.3723725,0.544969011 L75.6235071,1.07533349 Z" id="Path-9"></path>
                    <path d="M19.8746875,47.5595356 C21.4025707,52.194508 32.4657229,39.5467778 25.0333276,39.0237622 C19.6522144,39.1391268 17.0398497,38.959798 19.8746875,47.5595356 Z" id="Path-10"></path>
                    <path d="M2.51371799,66.1103418 C-1.77988202,76.0775038 7.82402588,85.0511654 3.79656738,66.1103418 C3.45909971,65.6278405 3.22518213,65.3865899 3.09481464,65.3865899 C2.94010448,65.3865899 2.7464056,65.6278405 2.51371799,66.1103418 Z" id="Path-11"></path>
                    <path d="M11.1530931,67.5509004 C6.56262778,68.3280003 5.70110929,77.8998422 10.2998878,76.9165562 C15.4307237,75.8195087 14.3549041,67.1344793 11.4817403,67.5509004 L11.1530931,67.5509004 Z" id="Path-12"></path>
                    <path d="M2.76236388,83.4250205 C1.53594296,83.0126594 1.10879642,83.6970273 0.741279804,84.5446312 C-4.07230144,95.6461979 16.6360787,98.1247848 3.53383431,84.1193491 L2.76236388,83.4250205 Z" id="Path-13"></path>
                    <path d="M58.4070837,84.4136713 C57.7338299,85.0496382 54.581608,87.4828158 55.1745331,88.8918213 C56.4442507,91.9091323 60.1572659,85.8347023 59.8176819,84.9319482 C59.4780979,84.0291942 58.8141028,84.0291942 58.4070837,84.4136713 Z" id="Path-14"></path>
                </g>
            </g>
        </g>
    </g>
</svg>