<?xml version="1.0" encoding="UTF-8"?>
<svg width="586px" height="649px" viewBox="0 0 586 649" version="1.1" xmlns="http://www.w3.org/2000/svg" xmlns:xlink="http://www.w3.org/1999/xlink">
    <!-- Generator: Sketch 53.2 (72643) - https://sketchapp.com -->
    <title>KragglMitRectangle</title>
    <desc>Created with Sketch.</desc>
    <defs>
        <filter x="-10.7%" y="-13.7%" width="121.5%" height="128.5%" filterUnits="objectBoundingBox" id="filter-1">
            <feGaussianBlur stdDeviation="10" in="SourceGraphic"></feGaussianBlur>
        </filter>
        <filter x="-11.1%" y="-6.7%" width="122.2%" height="113.4%" filterUnits="objectBoundingBox" id="filter-2">
            <feGaussianBlur stdDeviation="10" in="SourceGraphic"></feGaussianBlur>
        </filter>
        <filter x="-131.6%" y="-85.1%" width="363.3%" height="270.1%" filterUnits="objectBoundingBox" id="filter-3">
            <feGaussianBlur stdDeviation="10" in="SourceGraphic"></feGaussianBlur>
        </filter>
        <filter x="-131.6%" y="-85.1%" width="363.3%" height="270.1%" filterUnits="objectBoundingBox" id="filter-4">
            <feGaussianBlur stdDeviation="10" in="SourceGraphic"></feGaussianBlur>
        </filter>
        <filter x="-11.4%" y="-5.5%" width="122.8%" height="110.9%" filterUnits="objectBoundingBox" id="filter-5">
            <feGaussianBlur stdDeviation="10" in="SourceGraphic"></feGaussianBlur>
        </filter>
    </defs>
    <g id="Page-1" stroke="none" stroke-width="1" fill="none" fill-rule="evenodd">
        <g id="KragglMitRectangle" transform="translate(-185.000000, -90.000000)">
            <rect id="Rectangle" x="0" y="0" width="830" height="830"></rect>
            <g id="Kraggl" transform="translate(212.000000, 117.000000)">
                <g id="Kraggl-Blur" stroke="#CDECF4" stroke-width="5">
                    <path d="M198.829535,211 C198.829535,237.030969 186.513946,248.59156 156.038474,234.988962 C102.349671,211.025192 8.7529418,260.016082 0.606987549,340.679072 C-3.99680459,386.266811 17.8475661,424.25036 57.3042879,430.000497 C78.3774339,433.071544 102.339615,417.604211 107.615927,401.846666 C111.533111,390.148118 111.533111,363.960403 94.4524497,355.873081 C77.8823948,348.027519 60.3008566,354.086942 53.2869735,368.330018 C47.522867,380.035176 54.2730296,398.863198 62.8248089,401.846666 C71.3478678,404.820114 81.0933918,401.846666 85.2201123,395.478081 C89.3468327,389.109495 76.7647437,392.580693 72.4114561,388.835237 C51.8742915,371.165592 99.8859758,370.261759 94.4524497,395.478081 C88.5867484,422.700074 37.4060227,405.376814 30.3722824,377.353691 C23.3385421,349.330569 43.6387505,323.085462 57.3042879,313.433927 C94.4524497,287.197362 162.90679,340.679072 217.827764,313.433927 C248.394227,298.270546 302.838833,241.764266 302.840429,211" id="TentacleKraggl" fill="#1F2542" filter="url(#filter-1)"></path>
                    <path d="M239.401231,240.644153 C246.422869,274.071235 260.103715,316.721235 264.496545,343.480159 C265.056926,346.893715 275.550659,412.145927 293.850331,440.674579 C314.84738,473.408363 405.149957,551.856395 457.519251,502.333471 C474.682243,486.10332 525.7789,397.244829 450.276815,348.189216 C425.453028,332.060574 380.578267,274.1374 368.949683,252.064783 C352.016637,219.923583 394.407467,131.493333 428.515002,93.8416514 C434.395635,87.349956 459.814717,47.1742074 490.647804,52.2284555 C521.480891,57.2827037 521.480891,104.302671 484.242927,96.1155962 C477.239551,94.5758459 474.83527,73.6610016 489.217283,73.6610016 C498.198307,73.6610016 493.518937,80.5536424 498.198307,88.1095851 C502.877678,95.6655277 516.958653,52.2284555 475.492228,61.509965 C474.314414,61.7735973 454.859068,72.0975628 461.859953,97.5366082 C464.696108,107.842315 480.935034,118.232988 499.285268,112.506067 C514.943997,107.619137 530.346148,91.6037623 531.40361,81.6211075 C534.289209,54.3804888 522.746168,48.7192289 509.639158,39.4046416 C493.907744,28.2250029 452.989275,26.5704333 405.149957,86.8913981 C357.310639,147.212363 330.971101,198.38123 338.807584,246.524349 C344.230875,279.842123 418.689349,351.966057 436.63997,371.050198 C464.252871,400.406758 457.519251,473.408363 405.149957,473.408363 C373.667084,473.408363 362.043482,454.790484 348.742872,430.197744 C343.721778,420.913775 341.670042,386.290853 304.963928,309.566862 C298.354367,295.751402 273.014082,237.143287 272.97105,236.651547" id="TentacleRight" fill="#26082A" filter="url(#filter-2)"></path>
                    <path d="M180.632798,216.526316 C173.815622,216.526316 168.289209,207.972598 168.289209,197.421053 C168.289209,186.869507 173.815622,178.315789 180.632798,178.315789 C187.449975,178.315789 192.976388,186.869507 192.976388,197.421053 C192.976388,207.972598 187.449975,216.526316 180.632798,216.526316 Z" id="LeftEye-Blur" filter="url(#filter-3)" transform="translate(180.632798, 197.421053) rotate(-5.000000) translate(-180.632798, -197.421053) "></path>
                    <path d="M321.64359,216.210526 C314.826413,216.210526 309.3,207.656809 309.3,197.105263 C309.3,186.553718 314.826413,178 321.64359,178 C328.460766,178 333.987179,186.553718 333.987179,197.105263 C333.987179,207.656809 328.460766,216.210526 321.64359,216.210526 Z" id="RightEye-Blur" fill="#1D2152" filter="url(#filter-4)" transform="translate(321.643590, 197.105263) scale(-1, 1) rotate(-5.000000) translate(-321.643590, -197.105263) "></path>
                    <path d="M221.064187,232.971467 C226.449285,288.44898 209.529911,406.016079 124.236673,374.269098 C122.015613,373.442398 119.932101,372.023769 118.389153,370.224922 C115.050109,366.332096 111.551169,362.276326 109.811641,357.451665 C100.483283,331.579034 134.189893,268.980271 134.374671,268.676146 C149.785095,243.312205 128.273936,210.31979 109.713465,202.784326 C103.678774,200.334269 76.3800166,197.421053 70.4343201,210.31979 C66.5985758,218.641146 58.4568481,242.354416 73.8463783,246.712206 C81.8828463,248.98786 88.9853805,242.537401 89.3159299,236.51048 C89.4895746,233.344408 89.485864,232.260222 83.108824,228.369549 C73.8463783,222.718473 76.3800166,233.47907 73.8463783,236.51048 C63.6142088,248.752912 66.6959671,218.932897 76.3800166,215.926175 C86.5073311,212.781828 105.159175,220.611403 103.549531,233.47907 C101.576646,249.250524 96.684952,260.179597 80.5404968,263.284048 C65.4704305,266.181901 50.2733339,250.01994 48.7541378,236.51048 C45.746903,209.768624 58.0767789,194.175758 73.8463783,186.491442 C89.6200843,178.805125 112.647686,177.082978 128.273936,186.491442 C142.186024,194.86782 150.212519,202.784326 158.08204,220.112321 C162.57441,230.004126 165.503328,244.91919 164.881675,250.183309 C160.570648,286.688785 148.699221,293.747774 133.594427,329.78833 C130.554417,337.0419 137.606707,348.766913 145.094838,350.098774 C154.371858,351.748813 161.087247,344.330899 164.881675,336.590055 C176.906902,312.057922 177.775701,300.033065 177.775701,268.676146 C177.775701,266.742455 180.632798,250.183309 188.370523,243.312205 C199.798133,233.16448 197.853105,224.068096 202.673335,216.814192 C201.089862,214.954674 199.553757,213.006467 198.068241,210.974461 C198.078764,210.422223 198.08408,209.866911 198.08408,209.308772 C198.08408,188.44016 190.652007,171.522807 181.48408,171.522807 C180.662326,171.522807 179.854518,171.658724 179.064758,171.921221 C174.334766,156.44328 171.694337,139.190397 171.694337,121 C171.694337,54.6755255 206.796814,0.814584633 250.300008,0.00915272828 C250.370959,0 250.441897,0.000141159927 250.512821,0.00042333297 C250.583739,0.00014116921 250.654679,0 250.725641,0.00169368007 C250.748631,0.00187667809 250.771619,0.00207449322 250.794604,0.0022871195 C250.81759,0.00207449322 250.840577,0.00187667809 250.863568,0.00169368007 C250.934529,0 251.005469,0.00014116921 251.076388,0.00042333297 C251.147311,0.000141159927 251.218249,0 251.289209,0 C294.792394,0.814584633 329.894872,54.6755255 329.894872,121 C329.894872,139.190397 327.254443,156.44328 322.524451,171.921221 C321.734691,171.658724 320.926883,171.522807 320.105128,171.522807 C310.937201,171.522807 303.505128,188.44016 303.505128,209.308772 C303.505128,209.866911 303.510444,210.422223 303.520968,210.974461 C301.423986,213.842878 299.226197,216.544311 296.936663,219.064994 C287.546992,301.058112 251.538996,352.092091 251.538996,423.402269 C251.538996,443.55102 318.815431,524.394592 329.992358,545.412861 C347.245708,577.857876 303.831964,595.271777 294.428295,595.271777 C279.337789,595.271777 239.520203,582.677045 251.538996,572.838974 C254.00198,570.82288 283.694424,588.510411 295.887368,582.089742 C310.65971,574.310791 310.65971,545.412861 302.50356,538.160255 C286.483055,523.914514 210.3,484.721718 210.3,423.402269 C210.3,391.49748 221.839475,317.504117 250.50161,241.99941 C240.088955,241.84327 230.154648,238.648985 221.064187,232.971467 Z" id="FrontBody-Blur" fill="#094549" filter="url(#filter-5)"></path>
                </g>
                <g>
                    <path d="M198.829535,211 C198.829535,237.030969 186.513946,248.59156 156.038474,234.988962 C102.349671,211.025192 8.7529418,260.016082 0.606987549,340.679072 C-3.99680459,386.266811 17.8475661,424.25036 57.3042879,430.000497 C78.3774339,433.071544 102.339615,417.604211 107.615927,401.846666 C111.533111,390.148118 111.533111,363.960403 94.4524497,355.873081 C77.8823948,348.027519 60.3008566,354.086942 53.2869735,368.330018 C47.522867,380.035176 54.2730296,398.863198 62.8248089,401.846666 C71.3478678,404.820114 81.0933918,401.846666 85.2201123,395.478081 C89.3468327,389.109495 76.7647437,392.580693 72.4114561,388.835237 C51.8742915,371.165592 99.8859758,370.261759 94.4524497,395.478081 C88.5867484,422.700074 37.4060227,405.376814 30.3722824,377.353691 C23.3385421,349.330569 43.6387505,323.085462 57.3042879,313.433927 C94.4524497,287.197362 162.90679,340.679072 217.827764,313.433927 C248.394227,298.270546 302.838833,241.764266 302.840429,211" id="TentacleKraggl" stroke="#CDECF4" stroke-width="2"></path>
                    <path d="M239.401231,240.644153 C246.422869,274.071235 260.103715,316.721235 264.496545,343.480159 C265.056926,346.893715 275.550659,412.145927 293.850331,440.674579 C314.84738,473.408363 405.149957,551.856395 457.519251,502.333471 C474.682243,486.10332 525.7789,397.244829 450.276815,348.189216 C425.453028,332.060574 380.578267,274.1374 368.949683,252.064783 C352.016637,219.923583 394.407467,131.493333 428.515002,93.8416514 C434.395635,87.349956 459.814717,47.1742074 490.647804,52.2284555 C521.480891,57.2827037 521.480891,104.302671 484.242927,96.1155962 C477.239551,94.5758459 474.83527,73.6610016 489.217283,73.6610016 C498.198307,73.6610016 493.518937,80.5536424 498.198307,88.1095851 C502.877678,95.6655277 516.958653,52.2284555 475.492228,61.509965 C474.314414,61.7735973 454.859068,72.0975628 461.859953,97.5366082 C464.696108,107.842315 480.935034,118.232988 499.285268,112.506067 C514.943997,107.619137 530.346148,91.6037623 531.40361,81.6211075 C534.289209,54.3804888 522.746168,48.7192289 509.639158,39.4046416 C493.907744,28.2250029 452.989275,26.5704333 405.149957,86.8913981 C357.310639,147.212363 330.971101,198.38123 338.807584,246.524349 C344.230875,279.842123 418.689349,351.966057 436.63997,371.050198 C464.252871,400.406758 457.519251,473.408363 405.149957,473.408363 C373.667084,473.408363 362.043482,454.790484 348.742872,430.197744 C343.721778,420.913775 341.670042,386.290853 304.963928,309.566862 C298.354367,295.751402 273.014082,237.143287 272.97105,236.651547" id="TentacleRight" stroke="#0C0D38" fill="#CDECF4"></path>
                    <path d="M180.632798,216.526316 C173.815622,216.526316 168.289209,207.972598 168.289209,197.421053 C168.289209,186.869507 173.815622,178.315789 180.632798,178.315789 C187.449975,178.315789 192.976388,186.869507 192.976388,197.421053 C192.976388,207.972598 187.449975,216.526316 180.632798,216.526316 Z" id="LeftEye" stroke="#0C0D38" fill="#CDECF4" transform="translate(180.632798, 197.421053) rotate(-5.000000) translate(-180.632798, -197.421053) "></path>
                    <path d="M321.64359,216.210526 C314.826413,216.210526 309.3,207.656809 309.3,197.105263 C309.3,186.553718 314.826413,178 321.64359,178 C328.460766,178 333.987179,186.553718 333.987179,197.105263 C333.987179,207.656809 328.460766,216.210526 321.64359,216.210526 Z" id="RightEye" stroke="#0C0D38" fill="#CDECF4" transform="translate(321.643590, 197.105263) scale(-1, 1) rotate(-5.000000) translate(-321.643590, -197.105263) "></path>
                    <path d="M221.064187,232.971467 C226.449285,288.44898 209.529911,406.016079 124.236673,374.269098 C122.015613,373.442398 119.932101,372.023769 118.389153,370.224922 C115.050109,366.332096 111.551169,362.276326 109.811641,357.451665 C100.483283,331.579034 134.189893,268.980271 134.374671,268.676146 C149.785095,243.312205 128.273936,210.31979 109.713465,202.784326 C103.678774,200.334269 76.3800166,197.421053 70.4343201,210.31979 C66.5985758,218.641146 58.4568481,242.354416 73.8463783,246.712206 C81.8828463,248.98786 88.9853805,242.537401 89.3159299,236.51048 C89.4895746,233.344408 89.485864,232.260222 83.108824,228.369549 C73.8463783,222.718473 76.3800166,233.47907 73.8463783,236.51048 C63.6142088,248.752912 66.6959671,218.932897 76.3800166,215.926175 C86.5073311,212.781828 105.159175,220.611403 103.549531,233.47907 C101.576646,249.250524 96.684952,260.179597 80.5404968,263.284048 C65.4704305,266.181901 50.2733339,250.01994 48.7541378,236.51048 C45.746903,209.768624 58.0767789,194.175758 73.8463783,186.491442 C89.6200843,178.805125 112.647686,177.082978 128.273936,186.491442 C142.186024,194.86782 150.212519,202.784326 158.08204,220.112321 C162.57441,230.004126 165.503328,244.91919 164.881675,250.183309 C160.570648,286.688785 148.699221,293.747774 133.594427,329.78833 C130.554417,337.0419 137.606707,348.766913 145.094838,350.098774 C154.371858,351.748813 161.087247,344.330899 164.881675,336.590055 C176.906902,312.057922 177.775701,300.033065 177.775701,268.676146 C177.775701,266.742455 180.632798,250.183309 188.370523,243.312205 C199.798133,233.16448 197.853105,224.068096 202.673335,216.814192 C201.089862,214.954674 199.553757,213.006467 198.068241,210.974461 C198.078764,210.422223 198.08408,209.866911 198.08408,209.308772 C198.08408,188.44016 190.652007,171.522807 181.48408,171.522807 C180.662326,171.522807 179.854518,171.658724 179.064758,171.921221 C174.334766,156.44328 171.694337,139.190397 171.694337,121 C171.694337,54.6755255 206.796814,0.814584633 250.300008,0.00915272828 C250.370959,0 250.441897,0.000141159927 250.512821,0.00042333297 C250.583739,0.00014116921 250.654679,0 250.725641,0.00169368007 C250.748631,0.00187667809 250.771619,0.00207449322 250.794604,0.0022871195 C250.81759,0.00207449322 250.840577,0.00187667809 250.863568,0.00169368007 C250.934529,0 251.005469,0.00014116921 251.076388,0.00042333297 C251.147311,0.000141159927 251.218249,0 251.289209,0 C294.792394,0.814584633 329.894872,54.6755255 329.894872,121 C329.894872,139.190397 327.254443,156.44328 322.524451,171.921221 C321.734691,171.658724 320.926883,171.522807 320.105128,171.522807 C310.937201,171.522807 303.505128,188.44016 303.505128,209.308772 C303.505128,209.866911 303.510444,210.422223 303.520968,210.974461 C301.423986,213.842878 299.226197,216.544311 296.936663,219.064994 C287.546992,301.058112 251.538996,352.092091 251.538996,423.402269 C251.538996,443.55102 318.815431,524.394592 329.992358,545.412861 C347.245708,577.857876 303.831964,595.271777 294.428295,595.271777 C279.337789,595.271777 239.520203,582.677045 251.538996,572.838974 C254.00198,570.82288 283.694424,588.510411 295.887368,582.089742 C310.65971,574.310791 310.65971,545.412861 302.50356,538.160255 C286.483055,523.914514 210.3,484.721718 210.3,423.402269 C210.3,391.49748 221.839475,317.504117 250.50161,241.99941 C240.088955,241.84327 230.154648,238.648985 221.064187,232.971467 Z" id="FrontBody" stroke="#0C0D38" fill="#CDECF4"></path>
                </g>
            </g>
        </g>
    </g>
</svg>
